<svg width="81" height="53" viewBox="0 0 81 53" fill="none" xmlns="http://www.w3.org/2000/svg">
<path d="M80.1557 16.857C79.5209 16.4934 78.5385 16.5476 78.0195 17.0512C78.3912 15.0076 77.6237 11.8394 75.2655 11.4375C72.8349 11.0242 72.0335 13.9034 72.1252 15.8363C70.9594 14.2963 68.956 12.6591 67.042 14.1156C65.403 15.3621 65.9654 18.8667 67.9012 19.63C67.9785 19.6616 68.0509 19.6367 68.0992 19.5938C70.1146 19.6435 72.1349 19.5893 74.1503 19.639C76.1417 19.6864 78.1692 19.9461 80.1605 19.91C80.2595 19.9642 80.4019 19.9642 80.4888 19.8535C81.1767 18.9796 81.266 17.487 80.1581 16.8547L80.1557 16.857ZM74.3483 19.2167C72.2556 19.1829 70.1412 19.1648 68.0557 19.359C66.4916 18.5348 65.8158 15.4118 67.4402 14.3618C69.4677 13.052 71.3746 15.326 72.2604 16.7644C72.3811 16.9586 72.6949 16.8276 72.6394 16.6154C72.3932 15.6444 72.4076 14.653 72.7649 13.7046C73.2018 12.5485 74.3265 11.2862 75.7627 12.0201C77.8119 13.0656 77.754 15.8273 77.4523 17.6428C77.4137 17.8754 77.7468 17.9702 77.8337 17.7399C77.8409 17.7241 77.8457 17.706 77.8506 17.688C77.8844 17.6857 77.9157 17.6699 77.9375 17.636C78.3574 16.9496 79.3881 16.7147 80.0615 17.2544C80.7712 17.8212 80.6456 18.8283 80.1943 19.5058C78.2971 19.2032 76.2623 19.2529 74.3459 19.2212L74.3483 19.2167Z" fill="#355B99"/>
<path d="M47.7893 24.7798C46.4909 24.2304 45.0268 24.7481 44.1704 25.8446C44.0116 23.3219 43.2496 20.3499 40.517 19.9713C39.4672 19.8248 38.505 20.3059 37.8765 21.1924C37.2872 22.0227 37.0961 22.9995 37.0961 23.9959C36.7278 23.1827 36.2558 22.4305 35.5514 21.8908C34.5362 21.1094 33.2148 20.936 32.1558 21.7199C29.9251 23.3707 30.153 27.1975 32.0338 29.0145C32.0845 29.0633 32.1374 29.0657 32.1834 29.0438C32.195 29.0902 32.2272 29.1292 32.2893 29.1317C35.1025 29.2855 37.9433 29.1561 40.7564 29.1268C43.565 29.0975 46.4242 29.2098 49.2235 28.99C49.2649 28.9876 49.2972 28.9729 49.3248 28.9534C49.4422 29.0145 49.6033 28.9827 49.6448 28.8093C50.0085 27.2073 49.2764 25.4075 47.7893 24.7798ZM40.7564 28.6604C37.941 28.7092 35.0956 28.6603 32.2893 28.8924C32.2801 28.8924 32.2755 28.8972 32.2663 28.8997C32.2663 28.8679 32.2548 28.8362 32.2318 28.8069C30.8068 26.9875 30.2612 23.9617 32.188 22.2523C33.2585 21.3023 34.649 21.5953 35.6136 22.5624C36.4607 23.4123 36.8751 24.6333 37.2549 25.7713C37.3585 26.0839 37.766 25.9569 37.7154 25.637C37.5128 24.3256 37.4253 22.8774 38.132 21.7052C38.8434 20.5281 40.1556 20.1691 41.3296 20.7675C43.4291 21.8347 43.6755 24.5112 43.7054 26.692C43.7077 26.9387 44.0599 27.073 44.1704 26.8263C44.7413 25.5638 46.1042 24.7603 47.421 25.1755C48.7677 25.6028 49.4836 27.1585 49.2235 28.5627C46.4195 28.421 43.5627 28.6139 40.7564 28.6628V28.6604Z" fill="#355B99"/>
<path d="M62.1374 7.47496C59.7183 6.19529 57.0628 7.99448 56.1317 10.212C55.6076 7.7156 53.9746 5.20798 50.9354 5.78147C47.4143 6.44718 46.413 9.98483 47.0728 12.9602C46.3147 12.1236 45.3064 11.4962 44.167 12.2091C43.0089 12.9355 43.1165 14.4693 44.1997 15.18C44.0734 15.2295 44.0921 15.4274 44.2512 15.4364C50.0979 15.803 56.0241 15.6208 61.8824 15.659C62.0392 15.659 62.1187 15.5443 62.1234 15.4274C63.5739 13.2279 65.3684 9.18195 62.1374 7.47271V7.47496ZM44.4688 15.1598C44.4922 15.1013 44.4828 15.0316 44.4173 14.9843C43.2312 14.123 43.6406 12.2856 45.2268 12.3193C46.2796 12.3418 46.9043 13.2819 47.405 14.06C47.5243 14.2467 47.8612 14.1297 47.7863 13.9048C46.8224 11.0778 47.2272 7.11962 50.8044 6.274C54.1851 5.47561 55.6684 8.90082 55.7995 11.5299C55.8158 11.8492 56.2814 11.8425 56.3095 11.5299C56.5341 9.03351 60.0552 6.08284 62.4416 8.32058C64.5355 10.2862 62.9259 13.2549 61.6835 15.1822C55.9632 15.1373 50.1844 14.8921 44.4688 15.1598Z" fill="#355B99"/>
<path d="M0.00449341 0.893522C0.800084 5.26813 1.63718 10.2972 4.53129 13.8451C6.87655 16.7225 10.3149 18.6354 13.9146 19.4621C21.3355 21.166 29.0632 18.2725 33.5946 12.2078C36.0805 8.88034 37.5817 4.80656 37.6578 0.652402C37.6625 0.45032 37.3627 0.470987 37.3488 0.66618C36.8115 7.87223 32.6698 14.8165 25.92 17.8408C19.2762 20.8169 10.6769 19.6297 5.58746 14.2585C2.16297 10.6463 1.51727 5.39673 0.468011 0.748849C0.461093 0.721293 0.451869 0.698329 0.440339 0.677662C1.85626 0.712107 3.27218 0.728182 4.6881 0.735071C5.27845 7.0685 7.5038 14.3894 14.0553 16.8924C20.0764 19.1934 26.7802 16.0818 30.4122 11.1584C32.6837 8.07661 34.0373 4.34039 34.5816 0.572028C35.5547 0.542175 36.5279 0.507729 37.4987 0.457209C37.7178 0.445727 37.6994 0.131122 37.4849 0.121937C33.7398 -0.0342172 29.9741 -0.0135495 26.2129 0.0369709C26.1552 0.239053 26.0745 0.434245 25.9869 0.627141C25.9823 0.636327 25.9776 0.645512 25.9753 0.654698C26.0122 0.654698 26.0468 0.654698 26.0837 0.654698C25.7932 2.55151 25.438 4.41388 24.5802 6.15454C23.7362 7.87223 22.2557 10.0056 20.1041 10.0125C17.9041 10.0193 16.2991 8.30854 15.628 6.35432C14.9847 4.48047 15.1899 2.59973 15.1645 0.673069C15.1945 0.673069 15.2245 0.673069 15.2522 0.673069C15.2199 0.55136 15.2083 0.41817 15.2268 0.271202C15.2337 0.225274 15.236 0.17705 15.2406 0.131123C13.9815 0.131123 12.7201 0.131123 11.461 0.131123C11.3641 0.0369709 11.1912 0.0392673 11.1036 0.131123C7.53609 0.135715 3.96861 0.158679 0.408054 0.280387C0.232793 0.287277 0.188978 0.464098 0.25816 0.578917C0.119796 0.585806 -0.0277914 0.712107 0.00449341 0.891225V0.893522ZM14.701 0.682254C14.3113 4.36336 15.1046 10.1686 19.8228 10.4189C21.8659 10.5268 23.3464 8.99286 24.3473 7.38999C25.5925 5.40132 26.2382 2.99471 26.3305 0.656994C27.3106 0.656994 28.2929 0.65929 29.273 0.656994C28.8902 3.49762 28.12 6.15224 26.4942 8.56114C24.9238 10.892 22.5485 13.2595 19.4999 12.9771C13.4834 12.4191 12.0329 5.62866 11.5694 0.712107C12.6117 0.702922 13.6564 0.69144 14.6987 0.682254H14.701ZM11.0828 0.7167C11.3457 3.68592 11.7631 6.78145 13.3704 9.35569C14.6872 11.4615 16.954 13.1654 19.4884 13.3881C22.4448 13.6476 24.7923 11.5694 26.4296 9.34421C28.2468 6.8756 29.499 3.74333 29.5751 0.654698C30.4491 0.650105 31.3208 0.643216 32.1925 0.629438C31.1225 4.12913 30.0455 7.7 27.7579 10.6325C25.8462 13.0827 22.9844 15.0209 19.8182 15.2712C16.2599 15.5536 13.2021 13.3927 11.3065 10.5429C9.34404 7.58977 8.71218 4.11535 7.8843 0.737368C8.9497 0.732775 10.0151 0.725886 11.0805 0.7167H11.0828ZM7.41848 0.737368C7.41386 0.767221 7.41156 0.797074 7.41848 0.831519C8.40316 6.16602 10.248 12.6372 15.7341 15.0025C20.5907 17.0968 25.7909 14.1758 28.5789 10.1686C30.5552 7.33028 31.6667 3.94771 32.4992 0.622548C33.0872 0.611067 33.6753 0.599585 34.2633 0.58351C33.0941 6.68041 30.2715 12.8806 24.4003 15.7511C21.6884 17.0761 18.4899 17.579 15.5335 16.8603C12.4434 16.1071 9.94822 13.9531 8.28555 11.3099C6.29543 8.14779 5.55287 4.40928 5.20927 0.74196C5.9449 0.744257 6.68054 0.74196 7.41617 0.739664L7.41848 0.737368Z" fill="#355B99"/>
<path d="M75.1771 27.5839L75.1184 27.5979C75.241 27.3002 75.1899 26.9445 75.315 26.6352L75.2895 26.6538C75.4581 25.8376 75.8898 25.1562 76.4109 24.5098C76.3981 24.5167 76.3802 24.5098 76.3674 24.5191C76.4083 24.4981 76.4671 24.4795 76.49 24.4423C76.4875 24.426 76.4619 24.4377 76.4466 24.447C76.4747 24.254 76.8221 24.0796 76.84 23.9563C76.8834 23.9261 76.9268 23.9331 76.9319 23.9703C77.3968 23.5098 77.9665 23.0727 78.5897 22.7936C78.6102 22.768 78.6025 22.7448 78.577 22.7238C79.1542 22.5494 79.6779 22.2681 80.2475 22.082C80.2807 22.1099 80.2015 22.1355 80.2705 22.1564C80.1045 22.2471 79.9052 22.1774 79.7673 22.2936L79.803 22.3192C79.6958 22.382 79.7417 22.2448 79.6396 22.3332C79.6038 22.3797 79.6702 22.3704 79.6498 22.3797C79.3969 22.4634 79.1619 22.6029 78.8988 22.6448C78.886 22.7378 78.6485 22.7797 78.6102 22.8936C78.5335 22.9029 78.4799 22.9448 78.4262 22.9145C77.6753 23.4308 76.9268 24.0214 76.416 24.7818C76.0328 25.0632 75.9587 25.598 75.7416 26.0422C75.7467 26.0468 75.7518 26.0492 75.7569 26.0468C75.6599 26.1864 75.5705 26.4119 75.5449 26.6026L75.4376 26.7491C75.3738 27.3351 75.3482 27.9211 75.3866 28.5095C75.43 29.0955 75.5577 29.6838 75.8029 30.2279C76.3598 31.4697 77.2998 32.3254 77.9562 33.5509C77.969 33.5416 77.9818 33.5463 77.9665 33.5137C78.181 33.8486 78.4416 34.1207 78.6127 34.4578L78.6255 34.4485C78.8171 34.8764 79.0444 35.3043 79.2079 35.7554C79.3688 36.2066 79.4582 36.6763 79.4199 37.1181C79.5246 38.1855 79.2385 39.397 78.7328 40.4179L78.7634 40.4272C78.3343 41.2318 77.9971 42.0666 77.379 42.7735C76.8502 43.5665 75.9741 44.1804 75.4938 45.0105C75.3891 45.2896 75.1592 45.5454 74.9549 45.8175C74.7505 46.0872 74.5538 46.3709 74.5334 46.6546C74.4389 47.2127 74.3597 47.7336 74.3137 48.2661C74.2678 48.7986 74.278 49.3451 74.4338 49.8962C74.679 50.3636 74.9983 50.8031 75.4376 51.1403C75.8719 51.4775 76.439 51.6752 76.9907 51.6728C77.2385 51.7658 77.522 51.7449 77.7979 51.7077C78.0763 51.6635 78.3522 51.6007 78.6357 51.5845L78.6204 51.6217C78.8068 51.4938 79.098 51.7193 79.1977 51.5403L79.1747 51.5356C79.2666 51.438 79.4608 51.6891 79.5067 51.5821L79.5323 51.6193C79.6651 51.61 79.5374 51.5705 79.6345 51.538C79.6728 51.538 79.6651 51.6077 79.7392 51.5705C79.7188 51.4031 80.0636 51.5473 80.0304 51.3612C79.9614 51.3752 80.1223 51.2682 79.9563 51.2612C79.9972 51.2333 80.2143 51.2008 80.2117 51.2822C80.2501 51.3612 80.3522 51.417 80.2347 51.5077L80.1939 51.4519C80.1632 51.5217 80.1683 51.4891 80.1632 51.538C79.9921 51.5798 79.9895 51.6728 79.8746 51.731C79.8746 51.731 79.8746 51.7263 79.8746 51.724C79.7724 51.6682 79.6651 51.731 79.5987 51.7542L79.5783 51.7938C79.5502 51.8705 79.3509 51.6891 79.4276 51.8007C79.0648 51.8286 78.651 51.8844 78.2423 51.9054C78.1836 51.8658 77.9281 51.9216 78.015 51.8286C77.9179 51.9379 77.6063 51.9612 77.4914 51.9519C77.4939 51.9612 77.499 51.9728 77.5169 51.9682C77.2793 52.0844 77.264 51.8333 77.0316 51.9658C77.0239 51.9054 76.9268 51.9054 76.8196 51.8914C76.7123 51.8775 76.5922 51.8589 76.5539 51.7798C76.5207 51.7984 76.5054 51.817 76.5105 51.8403C76.135 51.7542 75.7084 51.624 75.4249 51.4473C75.3329 51.3356 75.195 51.2403 75.0596 51.1473C74.9395 51.0403 74.8093 50.9403 74.7991 50.8031C74.6483 50.6822 74.398 50.4613 74.3367 50.2008L74.3316 50.2311C74.186 49.9706 74.0864 49.6195 74.1298 49.4125C73.9638 49.3637 73.9714 49.2335 73.8999 49.1195C73.9152 49.0195 73.9152 48.8777 73.9076 48.7219C73.9152 48.5661 73.9101 48.3987 73.9536 48.2591C73.8872 48.2126 73.9893 48.0266 73.8948 48.0057C74.0225 47.6103 74.1426 47.1894 74.2831 46.7616C74.4261 46.3314 74.5922 45.9081 74.7531 45.5082L74.7403 45.5152C74.8425 45.4431 75.0187 45.3919 75.1388 45.3314C75.1388 45.3175 75.1235 45.3105 75.1107 45.3314C75.2103 45.2128 75.2103 45.0477 75.315 44.9291C75.3048 44.9245 75.2903 44.9261 75.2716 44.9338C75.3942 44.8385 75.3815 44.6501 75.55 44.5548L75.5347 44.5338L75.6318 44.4664C75.6037 44.4524 75.5603 44.4292 75.5347 44.4803C76.3163 43.406 77.3943 42.5084 78.0456 41.3573L77.9946 41.3852L78.1708 41.1876C78.1555 41.1829 78.1427 41.1876 78.1299 41.1969C78.2449 40.8946 78.4748 40.6295 78.5897 40.3365C78.5744 40.3318 78.5259 40.3644 78.5259 40.3179C78.7047 40.1342 78.5565 39.9412 78.7762 39.89C78.7711 39.8784 78.7353 39.8574 78.7123 39.876C78.9984 39.2947 79.1491 38.6459 79.1721 38.0111C79.2283 37.8832 79.2539 37.746 79.2666 37.6064C79.2845 37.4669 79.2768 37.3251 79.2666 37.1809C79.2513 36.8949 79.2028 36.6135 79.2028 36.3275L79.1696 36.3368C79.1645 36.1531 79.1108 35.974 79.0623 35.7926C78.9959 35.6159 78.9295 35.4368 78.8349 35.2694C78.6587 34.9276 78.4365 34.602 78.2296 34.2765C78.0405 34.016 77.9409 33.8207 77.7493 33.5602L77.711 33.5742C77.5118 33.0556 76.8834 32.7394 76.6842 32.1859L76.6612 32.2464C76.6816 32.1301 76.4313 31.9813 76.5769 31.9348L76.4824 31.8743C76.4287 31.465 76.0073 31.3302 75.8974 30.8581L75.8796 30.9C75.8489 30.7767 75.7978 30.6419 75.734 30.5674C75.734 30.5814 75.7237 30.5791 75.7263 30.6116C75.4274 30.3023 75.43 29.8349 75.3329 29.4443L75.2793 29.5024C75.3048 29.2954 75.1669 28.949 75.1822 28.6862L75.1541 28.7048L75.1822 28.5699H75.1184C75.0928 28.2304 75.1388 27.9118 75.1771 27.5839Z" fill="#355B99"/>
<path d="M53.2823 40.8626C53.2759 40.9212 53.2759 40.9844 53.2599 41.0406C53.2471 41.0805 53.2248 41.1203 53.2056 41.1601C53.1641 41.2444 53.0618 41.3193 52.9309 41.3147C52.7999 41.31 52.7008 41.2514 52.6561 41.1601C52.6369 41.1203 52.6145 41.0828 52.6018 41.0406C52.5826 40.9844 52.5858 40.9212 52.5794 40.8626C52.5666 40.7268 52.7519 40.598 52.934 40.6027C53.1162 40.6073 53.3015 40.7174 53.2887 40.8626H53.2823Z" fill="#355B99"/>
<path d="M51.3901 50.5673C54.0834 50.22 56.5525 48.5862 57.9139 46.1575C59.4225 43.4654 59.3749 40.0858 57.9569 37.3751C57.8255 37.1234 58.197 36.8996 58.3307 37.1514C58.3465 37.1817 58.3601 37.212 58.376 37.2423C58.3828 37.1654 58.4417 37.0954 58.5368 37.1257C63.0513 38.5895 65.2508 43.9106 63.1397 48.2808C60.9424 52.8305 55.1662 54.1078 51.27 51.0288C51.0752 50.875 51.1454 50.5999 51.3924 50.5673H51.3901ZM62.5983 48.2762C64.7661 44.1414 62.673 39.037 58.462 37.3914C58.453 37.3891 58.4485 37.3821 58.4394 37.3775C59.8415 40.1907 59.8755 43.6379 58.3239 46.4069C56.9783 48.8099 54.6248 50.4415 52.0062 50.9612C55.5852 53.3503 60.512 52.2501 62.596 48.2785L62.5983 48.2762Z" fill="#355B99"/>
<path d="M50.4675 45.3769C50.4599 45.3587 50.4524 45.3405 50.4448 45.3223C50.48 45.3739 50.4851 45.38 50.4574 45.3435L50.7314 45.4801C50.6661 45.4983 50.6007 45.4953 50.5353 45.471C50.4926 45.4558 50.4524 45.4346 50.4122 45.4073C50.3795 45.386 50.3971 45.3951 50.4675 45.4316C50.4524 45.4255 50.4348 45.4194 50.4197 45.4133L50.8898 45.2646C50.749 45.4042 50.6309 45.4831 50.4474 45.4831C50.4323 45.4831 50.4097 45.4862 50.3971 45.4831C50.4951 45.4619 50.5228 45.4589 50.48 45.471C50.4398 45.4862 50.4624 45.471 50.5504 45.4316C50.4122 45.5074 50.2814 45.5499 50.1306 45.4983C50.0049 45.4558 49.8667 45.3375 49.8038 45.1948C49.6781 44.9065 49.7209 44.4422 49.9999 44.2935C50.1507 44.2116 50.3041 44.1448 50.475 44.1691C50.6007 44.1873 50.7038 44.2146 50.8068 44.3117C50.9099 44.4089 50.9526 44.509 51.0029 44.6547L51.018 44.6972L50.7968 44.3482C50.8646 44.3906 50.9325 44.4513 50.9878 44.5151C51.0456 44.5849 51.0984 44.6789 51.1185 44.7761C51.1412 44.9005 51.1261 45.0128 51.111 45.1372L51.0708 44.7761C51.1236 44.9126 51.1412 45.0006 51.1562 45.1493C51.1738 45.3314 51.0306 45.5378 50.8873 45.5772C50.744 45.6167 50.5429 45.556 50.4725 45.3739L50.4675 45.3769Z" fill="#355B99"/>
<path d="M47.532 41.6859C47.5388 41.7512 47.5406 41.8254 47.5526 41.8877L47.5216 41.7571L47.5268 41.7749L47.4115 41.5762L47.4287 41.5969C47.4958 41.6741 47.5423 41.7631 47.575 41.8906C47.6077 42.0182 47.6146 42.1547 47.5922 42.2882C47.5526 42.5374 47.4046 42.751 47.2497 42.7391C47.1069 42.7273 46.9813 42.5938 46.9245 42.3623C46.8935 42.2377 46.8849 42.0983 46.9073 41.9648C46.9331 41.8076 46.9933 41.6889 47.0707 41.5999L47.088 41.5791L46.9727 41.7779L46.9778 41.7601L46.9468 41.8906C46.9606 41.8283 46.9623 41.7542 46.9675 41.6889L46.9967 41.5673C47.0157 41.5079 47.0398 41.4604 47.0725 41.4248C47.1224 41.3596 47.186 41.3121 47.2497 41.3151C47.3014 41.318 47.3513 41.3418 47.3977 41.3833C47.4545 41.4337 47.5216 41.5732 47.532 41.6859Z" fill="#355B99"/>
<path d="M52.5788 41.3148C51.6314 41.3148 51.6314 39.8901 52.5788 39.8901C53.5261 39.8901 53.5261 41.3148 52.5788 41.3148Z" fill="#355B99"/>
<path d="M21.4016 6.19781C21.464 6.25236 21.5283 6.30692 21.5967 6.35541C21.6933 6.42007 21.8703 6.44229 21.9608 6.34531C22.0513 6.24832 22.0413 6.08668 21.9709 5.97959C21.9246 5.90887 21.8703 5.84623 21.814 5.78359C21.7677 5.72904 21.6772 5.69873 21.6068 5.69873C21.5364 5.69873 21.4499 5.73106 21.3996 5.78359C21.299 5.89472 21.2769 6.09072 21.3996 6.19781H21.4016Z" fill="#355B99"/>
</svg>
